<svg width="109" height="108" viewBox="0 0 109 108" fill="none" xmlns="http://www.w3.org/2000/svg">
<path d="M46.0267 42.1394H34.2507L35.6702 35.2H67.7387L66.3193 42.1394H54.5959L48.6027 72H40.0862L46.0267 42.1394Z" fill="black"/>
<path d="M58.4453 55.2035H51.8214L52.6198 51.3H70.6584L69.8599 55.2035H63.2655L59.8944 72H55.1038L58.4453 55.2035Z" fill="black"/>
<path d="M96.0001 53C96.0001 63.4944 92.1622 73.6266 85.2097 81.4876C78.2571 89.3485 68.6698 94.3956 58.2539 95.6778C47.8381 96.9601 37.313 94.389 28.6614 88.449C20.0099 82.509 13.8292 73.6101 11.2839 63.429C8.73866 53.2479 10.0045 42.4875 14.8429 33.175C19.6813 23.8625 27.7583 16.6408 37.5522 12.8707C47.346 9.10052 58.1805 9.04211 68.0144 12.7065C77.8483 16.3708 86.0027 23.5049 90.9412 32.7647" stroke="black" stroke-width="6" stroke-dasharray="5 5"/>
</svg>
